<svg width="32" height="32" viewBox="0 0 32 32" fill="none" xmlns="http://www.w3.org/2000/svg">
  <!-- Background Circle -->
  <circle cx="16" cy="16" r="16" fill="#3B82F6"/>
  
  <!-- Heartbeat Line -->
  <path d="M4 16 L8 16 L10 10 L12 22 L14 8 L16 18 L18 12 L20 20 L22 14 L24 16 L28 16" 
        stroke="white" 
        stroke-width="2" 
        stroke-linecap="round" 
        stroke-linejoin="round"
        fill="none"/>
  
  <!-- Heart Icon -->
  <path d="M16 26 C16 26 8 20 8 14 C8 11 10 9 12 9 C14 9 16 11 16 11 C16 11 18 9 20 9 C22 9 24 11 24 14 C24 20 16 26 16 26Z" 
        fill="white" 
        opacity="0.9"/>
  
  <!-- Plus Sign (Medical) -->
  <rect x="14" y="6" width="4" height="4" fill="white" rx="0.5"/>
  <rect x="12" y="8" width="4" height="4" fill="white" rx="0.5"/>
  <rect x="16" y="8" width="4" height="4" fill="white" rx="0.5"/>
  <rect x="14" y="10" width="4" height="4" fill="white" rx="0.5"/>
</svg>
